<svg xmlns="http://www.w3.org/2000/svg" viewBox="0 0 24 24" role="img" aria-label="GitHub">
  <rect width="24" height="24" rx="5" fill="#fff"/>
  <path fill="#24292f" d="M 12 .7a11.5 11.5 0 0 0-3.6 22.4c.6.1.8-.3.8-.6v-2.2c-3.3.7-4-1.4-4-1.4-.5-1.4-1.3-1.8-1.3-1.8-1.1-.7.1-.7.1-.7 1.2.1 1.8 1.2 1.8 1.2 1.1 1.8 2.8 1.3 3.5 1 .1-.8.4-1.3.8-1.6-2.7-.3-5.5-1.3-5.5-5.7 0-1.3.5-2.3 1.2-3.1-.1-.3-.5-1.5.1-3.1 0 0 1-.3 3.2 1.2a11 11 0 0 1 5.8 0C17 4.8 18 5.1 18 5.1c.6 1.6.2 2.8.1 3.1.8.8 1.2 1.9 1.2 3.1 0 4.4-2.8 5.4-5.5 5.7.4.4.8 1.1.8 2.2v3.3c0 .3.2.7.8.6A11.5 11.5 0 0 0 12 .7Z"/>
</svg>